<?xml version="1.0" encoding="UTF-8"?>
<svg xmlns="http://www.w3.org/2000/svg" xmlns:xlink="http://www.w3.org/1999/xlink" width="2.3107788in" height="3.1825098in" viewBox="0 0 298 460">
<path fill="none" stroke-width="2.2" stroke-linecap="butt" stroke-linejoin="miter" stroke="rgb(13.729858%, 12.159729%, 12.548828%)" stroke-opacity="1" stroke-miterlimit="11.4737" d="M 1462.890625 3868.007812 C 1462.890625 3860.78125 1463.59375 3854.296875 1465 3847.8125 " transform="matrix(0.1, 0, 0, -0.1, 0, 460)"/>
<path fill="none" stroke-width="2.2" stroke-linecap="butt" stroke-linejoin="miter" stroke="rgb(13.729858%, 12.159729%, 12.548828%)" stroke-opacity="1" stroke-miterlimit="11.4737" d="M 1470.78125 4359.804688 C 1498.203125 4359.804688 1519.804688 4344.609375 1519.804688 4327.382812 C 1519.804688 4310.117188 1498.203125 4296.40625 1470.78125 4296.40625 C 1444.21875 4296.40625 1421.09375 4310.117188 1421.09375 4327.382812 C 1421.09375 4344.609375 1444.21875 4359.804688 1470.78125 4359.804688 Z M 1470.78125 4359.804688 " transform="matrix(0.1, 0, 0, -0.1, 0, 460)"/>
<path fill="none" stroke-width="2.2" stroke-linecap="butt" stroke-linejoin="miter" stroke="rgb(13.729858%, 12.159729%, 12.548828%)" stroke-opacity="1" stroke-miterlimit="11.4737" d="M 1524.804688 4099.101562 C 1506.796875 4099.101562 1492.382812 4104.882812 1492.382812 4112.109375 C 1492.382812 4118.59375 1506.796875 4125.78125 1524.804688 4125.78125 C 1542.109375 4125.78125 1555.78125 4118.59375 1555.78125 4112.109375 C 1555.78125 4104.882812 1542.109375 4099.101562 1524.804688 4099.101562 Z M 1524.804688 4099.101562 " transform="matrix(0.1, 0, 0, -0.1, 0, 460)"/>
<path fill="none" stroke-width="2.2" stroke-linecap="butt" stroke-linejoin="miter" stroke="rgb(13.729858%, 12.159729%, 12.548828%)" stroke-opacity="1" stroke-miterlimit="11.4737" d="M 1388.710938 4099.101562 C 1369.296875 4099.101562 1354.882812 4104.21875 1354.882812 4111.40625 C 1354.882812 4118.59375 1369.296875 4125.78125 1388.710938 4125.78125 C 1407.382812 4125.78125 1421.796875 4118.59375 1421.796875 4111.40625 C 1421.796875 4104.21875 1407.382812 4099.101562 1388.710938 4099.101562 Z M 1388.710938 4099.101562 " transform="matrix(0.1, 0, 0, -0.1, 0, 460)"/>
<path fill="none" stroke-width="2.2" stroke-linecap="butt" stroke-linejoin="miter" stroke="rgb(13.729858%, 12.159729%, 12.548828%)" stroke-opacity="1" stroke-miterlimit="11.4737" d="M 1456.40625 3926.992188 C 1474.414062 3927.8125 1503.90625 3932.109375 1524.804688 3931.40625 C 1503.90625 3915.507812 1402.382812 3919.101562 1391.601562 3928.515625 C 1401.71875 3931.40625 1439.804688 3927.8125 1456.40625 3926.992188 Z M 1456.40625 3926.992188 " transform="matrix(0.1, 0, 0, -0.1, 0, 460)"/>
<path fill="none" stroke-width="2.2" stroke-linecap="butt" stroke-linejoin="miter" stroke="rgb(13.729858%, 12.159729%, 12.548828%)" stroke-opacity="1" stroke-miterlimit="11.4737" d="M 1300.195312 4143.789062 C 1303.789062 3896.09375 1416.796875 3795.3125 1467.890625 3839.882812 C 1499.609375 3812.617188 1575.195312 3873.007812 1590.3125 3939.296875 C 1610.507812 3971.015625 1650.78125 4109.21875 1652.1875 4188.398438 " transform="matrix(0.1, 0, 0, -0.1, 0, 460)"/>
<path fill="none" stroke-width="2.2" stroke-linecap="butt" stroke-linejoin="miter" stroke="rgb(13.729858%, 12.159729%, 12.548828%)" stroke-opacity="1" stroke-miterlimit="11.4737" d="M 1454.21875 4122.1875 C 1464.296875 4083.28125 1364.21875 3971.015625 1483.007812 3998.28125 " transform="matrix(0.1, 0, 0, -0.1, 0, 460)"/>
<path fill="none" stroke-width="2.2" stroke-linecap="butt" stroke-linejoin="miter" stroke="rgb(13.729858%, 12.159729%, 12.548828%)" stroke-opacity="1" stroke-miterlimit="11.4737" d="M 1653.710938 4189.101562 C 1467.890625 4251.796875 1375 4243.085938 1289.414062 4194.21875 C 1275.703125 4367.695312 1268.515625 4376.992188 1473.710938 4415.195312 C 1664.492188 4376.992188 1673.085938 4371.992188 1653.710938 4189.101562 Z M 1653.710938 4189.101562 " transform="matrix(0.1, 0, 0, -0.1, 0, 460)"/>
<path fill="none" stroke-width="2.2" stroke-linecap="butt" stroke-linejoin="miter" stroke="rgb(13.729858%, 12.159729%, 12.548828%)" stroke-opacity="1" stroke-miterlimit="11.4737" d="M 1289.414062 4195.585938 C 1172.695312 4097.695312 1658.007812 4138.710938 1653.710938 4188.398438 " transform="matrix(0.1, 0, 0, -0.1, 0, 460)"/>
<path fill="none" stroke-width="2.2" stroke-linecap="butt" stroke-linejoin="miter" stroke="rgb(13.729858%, 12.159729%, 12.548828%)" stroke-opacity="1" stroke-miterlimit="11.4737" d="M 1588.203125 3864.414062 C 1585.3125 3886.71875 1581.71875 3888.203125 1584.609375 3909.804688 " transform="matrix(0.1, 0, 0, -0.1, 0, 460)"/>
<path fill="none" stroke-width="2.2" stroke-linecap="butt" stroke-linejoin="miter" stroke="rgb(13.729858%, 12.159729%, 12.548828%)" stroke-opacity="1" stroke-miterlimit="11.4737" d="M 1352.695312 3875.195312 C 1353.398438 3889.609375 1353.398438 3886.71875 1351.992188 3907.617188 " transform="matrix(0.1, 0, 0, -0.1, 0, 460)"/>
<path fill="none" stroke-width="2.2" stroke-linecap="butt" stroke-linejoin="miter" stroke="rgb(13.729858%, 12.159729%, 12.548828%)" stroke-opacity="1" stroke-miterlimit="11.4737" d="M 1647.1875 3398.59375 C 1650.117188 3398.59375 1651.484375 3397.109375 1651.484375 3395 C 1651.484375 3392.8125 1650.117188 3391.40625 1647.1875 3391.40625 C 1643.59375 3391.40625 1641.40625 3392.8125 1641.40625 3395 C 1641.40625 3397.109375 1643.59375 3398.59375 1647.1875 3398.59375 Z M 1647.1875 3398.59375 " transform="matrix(0.1, 0, 0, -0.1, 0, 460)"/>
<path fill="none" stroke-width="2.2" stroke-linecap="butt" stroke-linejoin="miter" stroke="rgb(13.729858%, 12.159729%, 12.548828%)" stroke-opacity="1" stroke-miterlimit="11.4737" d="M 1323.203125 3391.40625 C 1326.796875 3391.40625 1328.984375 3389.21875 1328.984375 3388.515625 C 1328.984375 3386.289062 1326.796875 3384.882812 1323.203125 3384.882812 C 1320.3125 3384.882812 1317.382812 3386.289062 1317.382812 3388.515625 C 1317.382812 3389.21875 1320.3125 3391.40625 1323.203125 3391.40625 Z M 1323.203125 3391.40625 " transform="matrix(0.1, 0, 0, -0.1, 0, 460)"/>
<path fill="none" stroke-width="2.2" stroke-linecap="butt" stroke-linejoin="miter" stroke="rgb(13.729858%, 12.159729%, 12.548828%)" stroke-opacity="1" stroke-miterlimit="11.4737" d="M 1230.3125 3368.28125 L 1414.609375 3363.984375 L 1407.382812 3464.804688 L 1234.609375 3467.695312 Z M 1230.3125 3368.28125 " transform="matrix(0.1, 0, 0, -0.1, 0, 460)"/>
<path fill="none" stroke-width="2.2" stroke-linecap="butt" stroke-linejoin="miter" stroke="rgb(13.729858%, 12.159729%, 12.548828%)" stroke-opacity="1" stroke-miterlimit="11.4737" d="M 1551.40625 3366.210938 L 1746.601562 3371.914062 L 1739.414062 3463.398438 L 1563.710938 3463.398438 Z M 1551.40625 3366.210938 " transform="matrix(0.1, 0, 0, -0.1, 0, 460)"/>
<path fill="none" stroke-width="2.2" stroke-linecap="butt" stroke-linejoin="miter" stroke="rgb(13.729858%, 12.159729%, 12.548828%)" stroke-opacity="1" stroke-miterlimit="11.4737" d="M 1260.585938 2808.203125 C 1271.40625 2720.3125 1331.09375 2633.203125 1365.703125 2567.695312 " transform="matrix(0.1, 0, 0, -0.1, 0, 460)"/>
<path fill="none" stroke-width="2.2" stroke-linecap="butt" stroke-linejoin="miter" stroke="rgb(13.729858%, 12.159729%, 12.548828%)" stroke-opacity="1" stroke-miterlimit="11.4737" d="M 1706.992188 3113.398438 L 1599.6875 2653.398438 " transform="matrix(0.1, 0, 0, -0.1, 0, 460)"/>
<path fill="none" stroke-width="2.2" stroke-linecap="butt" stroke-linejoin="miter" stroke="rgb(13.729858%, 12.159729%, 12.548828%)" stroke-opacity="1" stroke-miterlimit="11.4737" d="M 1433.398438 2557.617188 L 1543.515625 2558.28125 L 1542.8125 2476.992188 L 1435.507812 2475.507812 Z M 1433.398438 2557.617188 " transform="matrix(0.1, 0, 0, -0.1, 0, 460)"/>
<path fill="none" stroke-width="2.2" stroke-linecap="butt" stroke-linejoin="miter" stroke="rgb(13.729858%, 12.159729%, 12.548828%)" stroke-opacity="1" stroke-miterlimit="11.4737" d="M 1308.789062 2521.601562 C 1351.289062 2506.484375 1390.195312 2503.59375 1435.507812 2502.890625 " transform="matrix(0.1, 0, 0, -0.1, 0, 460)"/>
<path fill="none" stroke-width="2.2" stroke-linecap="butt" stroke-linejoin="miter" stroke="rgb(13.729858%, 12.159729%, 12.548828%)" stroke-opacity="1" stroke-miterlimit="11.4737" d="M 1308.789062 2552.617188 C 1351.992188 2543.203125 1392.304688 2534.609375 1435.507812 2536.71875 " transform="matrix(0.1, 0, 0, -0.1, 0, 460)"/>
<path fill="none" stroke-width="2.2" stroke-linecap="butt" stroke-linejoin="miter" stroke="rgb(13.729858%, 12.159729%, 12.548828%)" stroke-opacity="1" stroke-miterlimit="11.4737" d="M 1636.40625 2521.601562 C 1608.984375 2513.007812 1579.492188 2505.78125 1543.515625 2503.59375 " transform="matrix(0.1, 0, 0, -0.1, 0, 460)"/>
<path fill="none" stroke-width="2.2" stroke-linecap="butt" stroke-linejoin="miter" stroke="rgb(13.729858%, 12.159729%, 12.548828%)" stroke-opacity="1" stroke-miterlimit="11.4737" d="M 1635.703125 2553.984375 C 1608.28125 2542.5 1579.492188 2536.71875 1544.21875 2533.789062 " transform="matrix(0.1, 0, 0, -0.1, 0, 460)"/>
<path fill="none" stroke-width="2.2" stroke-linecap="butt" stroke-linejoin="miter" stroke="rgb(13.729858%, 12.159729%, 12.548828%)" stroke-opacity="1" stroke-miterlimit="11.4737" d="M 1675.3125 2568.398438 C 1704.101562 2582.8125 1734.296875 2608.710938 1756.601562 2624.609375 " transform="matrix(0.1, 0, 0, -0.1, 0, 460)"/>
<path fill="none" stroke-width="2.2" stroke-linecap="butt" stroke-linejoin="miter" stroke="rgb(13.729858%, 12.159729%, 12.548828%)" stroke-opacity="1" stroke-miterlimit="11.4737" d="M 1675.3125 2536.71875 C 1704.101562 2548.203125 1728.59375 2569.804688 1750.898438 2585 " transform="matrix(0.1, 0, 0, -0.1, 0, 460)"/>
<path fill="none" stroke-width="2.2" stroke-linecap="butt" stroke-linejoin="miter" stroke="rgb(13.729858%, 12.159729%, 12.548828%)" stroke-opacity="1" stroke-miterlimit="11.4737" d="M 1174.21875 2666.992188 C 1197.890625 2631.015625 1231.796875 2596.484375 1269.21875 2572.695312 " transform="matrix(0.1, 0, 0, -0.1, 0, 460)"/>
<path fill="none" stroke-width="2.2" stroke-linecap="butt" stroke-linejoin="miter" stroke="rgb(13.729858%, 12.159729%, 12.548828%)" stroke-opacity="1" stroke-miterlimit="11.4737" d="M 1180.585938 2620.195312 C 1204.414062 2584.21875 1234.609375 2564.101562 1269.21875 2535.3125 " transform="matrix(0.1, 0, 0, -0.1, 0, 460)"/>
<path fill="none" stroke-width="2.2" stroke-linecap="butt" stroke-linejoin="miter" stroke="rgb(13.729858%, 12.159729%, 12.548828%)" stroke-opacity="1" stroke-miterlimit="11.4737" d="M 1589.609375 2022.617188 C 1566.601562 2011.796875 1536.992188 1987.382812 1509.6875 1957.109375 C 1444.882812 1708.710938 1413.203125 1062.890625 1379.414062 671.210938 " transform="matrix(0.1, 0, 0, -0.1, 0, 460)"/>
<path fill="none" stroke-width="2.2" stroke-linecap="butt" stroke-linejoin="miter" stroke="rgb(13.729858%, 12.159729%, 12.548828%)" stroke-opacity="1" stroke-miterlimit="11.4737" d="M 1742.1875 2157.304688 C 1842.304688 1628.085938 1808.515625 1099.609375 1842.304688 571.796875 " transform="matrix(0.1, 0, 0, -0.1, 0, 460)"/>
<path fill="none" stroke-width="2.2" stroke-linecap="butt" stroke-linejoin="miter" stroke="rgb(13.729858%, 12.159729%, 12.548828%)" stroke-opacity="1" stroke-miterlimit="11.4737" d="M 1213.789062 2356.015625 C 1246.914062 1859.882812 1246.914062 1232.109375 1182.109375 631.601562 " transform="matrix(0.1, 0, 0, -0.1, 0, 460)"/>
<path fill="none" stroke-width="2.2" stroke-linecap="butt" stroke-linejoin="miter" stroke="rgb(13.729858%, 12.159729%, 12.548828%)" stroke-opacity="1" stroke-miterlimit="11.4737" d="M 1482.304688 3695.898438 C 1439.804688 3687.304688 1482.304688 2936.289062 1480.898438 2557.617188 " transform="matrix(0.1, 0, 0, -0.1, 0, 460)"/>
<path fill="none" stroke-width="2.2" stroke-linecap="butt" stroke-linejoin="miter" stroke="rgb(13.729858%, 12.159729%, 12.548828%)" stroke-opacity="1" stroke-miterlimit="11.4737" d="M 1179.882812 2848.515625 C 1189.296875 2757.8125 1228.203125 2676.40625 1264.882812 2597.890625 " transform="matrix(0.1, 0, 0, -0.1, 0, 460)"/>
<path fill="none" stroke-width="2.2" stroke-linecap="butt" stroke-linejoin="miter" stroke="rgb(13.729858%, 12.159729%, 12.548828%)" stroke-opacity="1" stroke-miterlimit="11.4737" d="M 1259.804688 2674.21875 C 1260.585938 2647.617188 1269.882812 2628.203125 1276.40625 2605.117188 " transform="matrix(0.1, 0, 0, -0.1, 0, 460)"/>
<path fill="none" stroke-width="2.2" stroke-linecap="butt" stroke-linejoin="miter" stroke="rgb(13.729858%, 12.159729%, 12.548828%)" stroke-opacity="1" stroke-miterlimit="11.4737" d="M 1205.117188 2684.296875 C 1212.304688 2664.21875 1220.195312 2641.796875 1232.5 2623.789062 " transform="matrix(0.1, 0, 0, -0.1, 0, 460)"/>
<path fill="none" stroke-width="2.2" stroke-linecap="butt" stroke-linejoin="miter" stroke="rgb(13.729858%, 12.159729%, 12.548828%)" stroke-opacity="1" stroke-miterlimit="11.4737" d="M 1567.304688 2671.40625 C 1567.304688 2613.007812 1563.710938 2602.1875 1561.484375 2566.992188 " transform="matrix(0.1, 0, 0, -0.1, 0, 460)"/>
<path fill="none" stroke-width="2.2" stroke-linecap="butt" stroke-linejoin="miter" stroke="rgb(13.729858%, 12.159729%, 12.548828%)" stroke-opacity="1" stroke-miterlimit="11.4737" d="M 1683.203125 2714.609375 C 1676.015625 2671.40625 1663.789062 2635.390625 1645 2600.117188 " transform="matrix(0.1, 0, 0, -0.1, 0, 460)"/>
<path fill="none" stroke-width="2.2" stroke-linecap="butt" stroke-linejoin="miter" stroke="rgb(13.729858%, 12.159729%, 12.548828%)" stroke-opacity="1" stroke-miterlimit="11.4737" d="M 1637.109375 2671.40625 C 1635.703125 2636.09375 1621.289062 2617.382812 1611.914062 2591.40625 " transform="matrix(0.1, 0, 0, -0.1, 0, 460)"/>
<path fill="none" stroke-width="2.2" stroke-linecap="butt" stroke-linejoin="miter" stroke="rgb(13.729858%, 12.159729%, 12.548828%)" stroke-opacity="1" stroke-miterlimit="11.4737" d="M 1761.71875 2891.71875 C 1744.414062 2793.789062 1721.40625 2696.601562 1695.390625 2606.601562 " transform="matrix(0.1, 0, 0, -0.1, 0, 460)"/>
<path fill="none" stroke-width="2.2" stroke-linecap="butt" stroke-linejoin="miter" stroke="rgb(13.729858%, 12.159729%, 12.548828%)" stroke-opacity="1" stroke-miterlimit="11.4737" d="M 1281.40625 2590.703125 L 1298.007812 2590.703125 C 1304.492188 2590.703125 1308.085938 2586.40625 1308.085938 2579.882812 L 1308.085938 2511.484375 C 1308.085938 2505 1304.492188 2500.703125 1298.007812 2500.703125 L 1281.40625 2500.703125 C 1276.40625 2500.703125 1270.585938 2505 1270.585938 2511.484375 L 1270.585938 2579.882812 C 1270.585938 2586.40625 1276.40625 2590.703125 1281.40625 2590.703125 Z M 1281.40625 2590.703125 " transform="matrix(0.1, 0, 0, -0.1, 0, 460)"/>
<path fill="none" stroke-width="2.2" stroke-linecap="butt" stroke-linejoin="miter" stroke="rgb(13.729858%, 12.159729%, 12.548828%)" stroke-opacity="1" stroke-miterlimit="11.4737" d="M 1647.1875 2587.8125 L 1663.789062 2587.8125 C 1670.195312 2587.8125 1675.3125 2582.8125 1675.3125 2576.289062 L 1675.3125 2507.890625 C 1675.3125 2501.40625 1670.195312 2497.109375 1663.789062 2497.109375 L 1647.1875 2497.109375 C 1641.40625 2497.109375 1636.40625 2501.40625 1636.40625 2507.890625 L 1636.40625 2576.289062 C 1636.40625 2582.8125 1641.40625 2587.8125 1647.1875 2587.8125 Z M 1647.1875 2587.8125 " transform="matrix(0.1, 0, 0, -0.1, 0, 460)"/>
<path fill="none" stroke-width="2.2" stroke-linecap="butt" stroke-linejoin="miter" stroke="rgb(13.729858%, 12.159729%, 12.548828%)" stroke-opacity="1" stroke-miterlimit="11.4737" d="M 1834.414062 3301.40625 C 1842.304688 3098.28125 1777.5 2826.210938 1750.898438 2585 C 1876.210938 2163.789062 1851.71875 1210.507812 1882.617188 539.414062 L 1582.382812 639.492188 L 1588.90625 1204.6875 C 1545 1449.492188 1536.992188 1988.085938 1509.6875 1957.109375 " transform="matrix(0.1, 0, 0, -0.1, 0, 460)"/>
<path fill="none" stroke-width="2.2" stroke-linecap="butt" stroke-linejoin="miter" stroke="rgb(13.729858%, 12.159729%, 12.548828%)" stroke-opacity="1" stroke-miterlimit="11.4737" d="M 1833.710938 3306.40625 C 1876.210938 3284.804688 1943.789062 3270.390625 1938.789062 3223.59375 C 1920.78125 3019.101562 1834.414062 2848.515625 1771.796875 2652.617188 C 1813.515625 2612.304688 1856.015625 2571.992188 1898.515625 2530.195312 C 1981.289062 2795.898438 2203.789062 3195.507812 2131.015625 3326.601562 L 2013.007812 3536.796875 L 1915 3662.109375 L 1768.90625 3730.507812 C 1714.21875 3756.40625 1678.90625 3776.601562 1634.21875 3806.796875 L 1588.90625 3866.601562 C 1570.195312 3803.90625 1519.804688 3746.289062 1482.304688 3695.898438 C 1433.398438 3738.398438 1380.78125 3796.015625 1351.289062 3878.085938 C 1288.59375 3804.609375 1288.59375 3767.890625 1189.296875 3723.984375 " transform="matrix(0.1, 0, 0, -0.1, 0, 460)"/>
<path fill="none" stroke-width="2.2" stroke-linecap="butt" stroke-linejoin="miter" stroke="rgb(13.729858%, 12.159729%, 12.548828%)" stroke-opacity="1" stroke-miterlimit="11.4737" d="M 1379.414062 671.914062 L 1128.789062 557.382812 C 1105.78125 936.210938 1113.007812 1353.789062 1112.1875 1740.390625 C 1111.484375 2126.992188 1128.789062 2463.984375 1181.40625 2620.195312 C 1148.984375 2862.890625 1061.09375 3179.6875 1086.992188 3351.796875 C 1100 3293.398438 1116.601562 3261.796875 1137.382812 3229.414062 " transform="matrix(0.1, 0, 0, -0.1, 0, 460)"/>
<path fill="none" stroke-width="2.2" stroke-linecap="butt" stroke-linejoin="miter" stroke="rgb(13.729858%, 12.159729%, 12.548828%)" stroke-opacity="1" stroke-miterlimit="11.4737" d="M 2810 3931.40625 L 2810.703125 3930.585938 " transform="matrix(0.1, 0, 0, -0.1, 0, 460)"/>
<path fill="none" stroke-width="2.2" stroke-linecap="butt" stroke-linejoin="miter" stroke="rgb(13.729858%, 12.159729%, 12.548828%)" stroke-opacity="1" stroke-miterlimit="11.4737" d="M 1634.21875 3807.5 L 1548.59375 3659.882812 L 1503.90625 3724.6875 " transform="matrix(0.1, 0, 0, -0.1, 0, 460)"/>
<path fill="none" stroke-width="2.2" stroke-linecap="butt" stroke-linejoin="miter" stroke="rgb(13.729858%, 12.159729%, 12.548828%)" stroke-opacity="1" stroke-miterlimit="11.4737" d="M 1305.898438 3816.210938 L 1383.710938 3661.40625 L 1431.914062 3748.515625 " transform="matrix(0.1, 0, 0, -0.1, 0, 460)"/>
<path fill-rule="evenodd" fill="rgb(13.729858%, 12.159729%, 12.548828%)" fill-opacity="1" d="M 138.730469 47.5 C 139.300781 47.5 139.949219 48.140625 139.949219 48.859375 C 139.949219 49.578125 139.300781 50.089844 138.730469 50.089844 C 138.011719 50.089844 137.5 49.578125 137.5 48.859375 C 137.5 48.140625 138.011719 47.5 138.730469 47.5 "/>
<path fill="none" stroke-width="2.2" stroke-linecap="butt" stroke-linejoin="miter" stroke="rgb(13.729858%, 12.159729%, 12.548828%)" stroke-opacity="1" stroke-miterlimit="11.4737" d="M 1387.304688 4125 C 1393.007812 4125 1399.492188 4118.59375 1399.492188 4111.40625 C 1399.492188 4104.21875 1393.007812 4099.101562 1387.304688 4099.101562 C 1380.117188 4099.101562 1375 4104.21875 1375 4111.40625 C 1375 4118.59375 1380.117188 4125 1387.304688 4125 Z M 1387.304688 4125 " transform="matrix(0.1, 0, 0, -0.1, 0, 460)"/>
<path fill-rule="evenodd" fill="rgb(13.729858%, 12.159729%, 12.548828%)" fill-opacity="1" d="M 152.480469 47.5 C 153.128906 47.5 153.78125 48.140625 153.78125 48.859375 C 153.78125 49.578125 153.128906 50.089844 152.480469 50.089844 C 151.828125 50.089844 151.328125 49.578125 151.328125 48.859375 C 151.328125 48.140625 151.828125 47.5 152.480469 47.5 "/>
<path fill="none" stroke-width="2.2" stroke-linecap="butt" stroke-linejoin="miter" stroke="rgb(13.729858%, 12.159729%, 12.548828%)" stroke-opacity="1" stroke-miterlimit="11.4737" d="M 1524.804688 4125 C 1531.289062 4125 1537.8125 4118.59375 1537.8125 4111.40625 C 1537.8125 4104.21875 1531.289062 4099.101562 1524.804688 4099.101562 C 1518.28125 4099.101562 1513.28125 4104.21875 1513.28125 4111.40625 C 1513.28125 4118.59375 1518.28125 4125 1524.804688 4125 Z M 1524.804688 4125 " transform="matrix(0.1, 0, 0, -0.1, 0, 460)"/>
<path fill="none" stroke-width="2.2" stroke-linecap="butt" stroke-linejoin="miter" stroke="rgb(13.729858%, 12.159729%, 12.548828%)" stroke-opacity="1" stroke-miterlimit="11.4737" d="M 1083.398438 3352.5 C 996.992188 3269.6875 973.320312 3255.3125 985.507812 3220 L 1184.21875 2665.585938 C 1153.28125 2627.382812 1120.898438 2590.703125 1088.515625 2551.796875 C 969.6875 2767.8125 750.117188 3276.210938 794.6875 3363.984375 C 842.1875 3456.210938 948.789062 3569.882812 1047.382812 3683.007812 L 1189.296875 3723.28125 " transform="matrix(0.1, 0, 0, -0.1, 0, 460)"/>
<path fill="none" stroke-width="2.2" stroke-linecap="butt" stroke-linejoin="miter" stroke="rgb(13.729858%, 12.159729%, 12.548828%)" stroke-opacity="1" stroke-miterlimit="11.4737" d="M 1810.585938 561.015625 C 1810.585938 561.015625 1900.585938 448.007812 1961.796875 421.40625 C 2023.007812 395.390625 1999.296875 368.789062 1999.296875 368.789062 C 1999.296875 368.789062 1974.804688 354.414062 1969.804688 349.414062 C 1963.28125 344.296875 1938.789062 343.59375 1935.898438 344.296875 L 1802.695312 373.085938 L 1678.90625 413.398438 L 1664.492188 432.890625 L 1629.21875 422.109375 L 1588.203125 429.296875 " transform="matrix(0.1, 0, 0, -0.1, 0, 460)"/>
<path fill="none" stroke-width="2.2" stroke-linecap="butt" stroke-linejoin="miter" stroke="rgb(13.729858%, 12.159729%, 12.548828%)" stroke-opacity="1" stroke-miterlimit="11.4737" d="M 1587.382812 429.296875 L 1586.71875 535.820312 L 1609.804688 581.210938 L 1631.40625 621.484375 " transform="matrix(0.1, 0, 0, -0.1, 0, 460)"/>
<path fill="none" stroke-width="2.2" stroke-linecap="butt" stroke-linejoin="miter" stroke="rgb(13.729858%, 12.159729%, 12.548828%)" stroke-opacity="1" stroke-miterlimit="11.4737" d="M 1146.09375 564.609375 L 1120.898438 413.398438 C 1120.898438 413.398438 1185.703125 308.984375 1187.8125 308.984375 C 1189.296875 308.320312 1332.617188 303.984375 1333.984375 303.984375 C 1335.390625 303.984375 1378.59375 432.890625 1378.59375 432.890625 C 1378.59375 432.890625 1338.984375 548.789062 1338.984375 550.195312 C 1339.804688 551.679688 1349.804688 656.796875 1349.804688 658.203125 " transform="matrix(0.1, 0, 0, -0.1, 0, 460)"/>
<path fill="none" stroke-width="2.2" stroke-linecap="butt" stroke-linejoin="miter" stroke="rgb(13.729858%, 12.159729%, 12.548828%)" stroke-opacity="1" stroke-miterlimit="11.4737" d="M 1120.195312 413.398438 L 1179.882812 298.984375 L 1332.617188 293.203125 L 1368.59375 360.195312 C 1369.296875 360.195312 1379.414062 432.1875 1379.414062 432.1875 " transform="matrix(0.1, 0, 0, -0.1, 0, 460)"/>
<path fill="none" stroke-width="2.2" stroke-linecap="butt" stroke-linejoin="miter" stroke="rgb(13.729858%, 12.159729%, 12.548828%)" stroke-opacity="1" stroke-miterlimit="11.4737" d="M 1588.203125 420.585938 L 1629.882812 409.101562 L 1663.007812 419.882812 L 1677.382812 403.398438 L 1764.609375 371.015625 L 1880.507812 342.1875 L 1950.3125 326.992188 C 1950.3125 326.992188 1986.289062 341.40625 1986.992188 341.40625 L 2000.703125 370.195312 " transform="matrix(0.1, 0, 0, -0.1, 0, 460)"/>
<path fill="none" stroke-width="2.2" stroke-linecap="butt" stroke-linejoin="miter" stroke="rgb(13.729858%, 12.159729%, 12.548828%)" stroke-opacity="1" stroke-miterlimit="11.4737" d="M 1145.390625 3659.882812 L 1145.390625 3614.609375 C 1158.28125 3614.609375 1145.390625 3608.789062 1158.28125 3608.789062 C 1158.28125 3601.601562 1165.507812 3595.117188 1170.585938 3595.117188 L 1177.8125 3588.59375 L 1177.8125 3575.703125 L 1184.21875 3569.21875 L 1190.703125 3569.21875 L 1197.1875 3562.695312 L 1197.1875 3516.601562 " transform="matrix(0.1, 0, 0, -0.1, 0, 460)"/>
<path fill="none" stroke-width="2.2" stroke-linecap="butt" stroke-linejoin="miter" stroke="rgb(13.729858%, 12.159729%, 12.548828%)" stroke-opacity="1" stroke-miterlimit="11.4737" d="M 1742.1875 3711.796875 C 1742.1875 3706.015625 1735.78125 3686.601562 1735.78125 3680.117188 C 1729.296875 3672.890625 1716.289062 3653.398438 1710.585938 3647.695312 C 1696.914062 3601.601562 1690.390625 3556.210938 1690.390625 3510.195312 " transform="matrix(0.1, 0, 0, -0.1, 0, 460)"/>
<path fill="none" stroke-width="2.2" stroke-linecap="butt" stroke-linejoin="miter" stroke="rgb(13.729858%, 12.159729%, 12.548828%)" stroke-opacity="1" stroke-miterlimit="11.4737" d="M 1813.515625 3653.398438 C 1813.515625 3633.984375 1806.992188 3621.015625 1806.992188 3601.601562 C 1801.289062 3595.117188 1787.617188 3575.703125 1781.796875 3562.695312 L 1781.796875 3510.195312 " transform="matrix(0.1, 0, 0, -0.1, 0, 460)"/>
<path fill-rule="evenodd" fill="rgb(100%, 100%, 100%)" fill-opacity="1" d="M 125.261719 219.648438 C 127.28125 222.890625 124.109375 217.78125 125.550781 221.300781 C 126.058594 222.460938 125.410156 223.179688 125.191406 223.25 C 124.828125 223.460938 122.171875 220.800781 122.460938 221.230469 C 122.378906 221.089844 119.289062 217.421875 119.21875 217.199219 C 115.328125 211.800781 114.179688 208.699219 110.359375 203.300781 C 113.171875 199.921875 115.398438 196.390625 118.28125 194.089844 C 122.101562 199.988281 123.101562 200.710938 124.539062 201.289062 C 128.429688 202.148438 128.359375 202.371094 131.460938 202.660156 C 132.25 202.730469 136.28125 200.351562 136.859375 201.941406 C 137.289062 202.800781 134.769531 203.949219 134.121094 204.460938 C 132.820312 205.390625 130.519531 205.679688 128.21875 205.179688 C 127.859375 205.820312 130.738281 209.351562 130.808594 209.640625 C 133.898438 212.089844 131.671875 209.929688 133.691406 212.160156 C 136.859375 215.691406 131.738281 209.929688 135.199219 214.03125 C 135.78125 214.75 135.699219 215.980469 135.558594 217.128906 C 135.558594 217.128906 134.699219 217.199219 133.261719 216.480469 C 133.261719 216.480469 130.660156 214.460938 130.808594 214.460938 C 134.191406 218.28125 129.148438 212.300781 131.890625 216.621094 C 132.460938 217.488281 132.03125 218.421875 131.890625 219.5 C 131.890625 219.5 130.300781 219 130.230469 219 C 130.089844 219.070312 127.28125 216.550781 127.28125 216.550781 C 130.589844 220.511719 125.699219 214.679688 128.859375 218.710938 C 129.441406 219.648438 129.300781 219.789062 128.859375 220.941406 C 128.859375 220.941406 126.851562 220.511719 126.699219 220.578125 L 125.261719 219.648438 "/>
<path fill="none" stroke-width="2.2" stroke-linecap="butt" stroke-linejoin="miter" stroke="rgb(13.729858%, 12.159729%, 12.548828%)" stroke-opacity="1" stroke-miterlimit="11.4737" d="M 1252.617188 2403.515625 C 1272.8125 2371.09375 1241.09375 2422.1875 1255.507812 2386.992188 C 1260.585938 2375.390625 1254.101562 2368.203125 1251.914062 2367.5 C 1248.28125 2365.390625 1221.71875 2391.992188 1224.609375 2387.695312 C 1223.789062 2389.101562 1192.890625 2425.78125 1192.1875 2428.007812 C 1153.28125 2481.992188 1141.796875 2513.007812 1103.59375 2566.992188 C 1131.71875 2600.78125 1153.984375 2636.09375 1182.8125 2659.101562 C 1221.015625 2600.117188 1231.015625 2592.890625 1245.390625 2587.109375 C 1284.296875 2578.515625 1283.59375 2576.289062 1314.609375 2573.398438 C 1322.5 2572.695312 1362.8125 2596.484375 1368.59375 2580.585938 C 1372.890625 2571.992188 1347.695312 2560.507812 1341.210938 2555.390625 C 1328.203125 2546.09375 1305.195312 2543.203125 1282.1875 2548.203125 C 1278.59375 2541.796875 1307.382812 2506.484375 1308.085938 2503.59375 C 1338.984375 2479.101562 1316.71875 2500.703125 1336.914062 2478.398438 C 1368.59375 2443.085938 1317.382812 2500.703125 1351.992188 2459.6875 C 1357.8125 2452.5 1356.992188 2440.195312 1355.585938 2428.710938 C 1355.585938 2428.710938 1346.992188 2428.007812 1332.617188 2435.195312 C 1332.617188 2435.195312 1306.601562 2455.390625 1308.085938 2455.390625 C 1341.914062 2417.1875 1291.484375 2476.992188 1318.90625 2433.789062 C 1324.609375 2425.117188 1320.3125 2415.78125 1318.90625 2405 C 1318.90625 2405 1303.007812 2410 1302.304688 2410 C 1300.898438 2409.296875 1272.8125 2434.492188 1272.8125 2434.492188 C 1305.898438 2394.882812 1256.992188 2453.203125 1288.59375 2412.890625 C 1294.414062 2403.515625 1293.007812 2402.109375 1288.59375 2390.585938 C 1288.59375 2390.585938 1268.515625 2394.882812 1266.992188 2394.21875 Z M 1252.617188 2403.515625 " transform="matrix(0.1, 0, 0, -0.1, 0, 460)"/>
<path fill-rule="evenodd" fill="rgb(100%, 100%, 100%)" fill-opacity="1" d="M 172.570312 221.738281 C 170.410156 224.898438 173.71875 219.859375 172.28125 223.390625 C 171.699219 224.539062 172.351562 225.191406 172.640625 225.261719 C 172.929688 225.550781 175.519531 222.890625 175.230469 223.320312 C 175.378906 223.101562 178.46875 219.5 178.621094 219.289062 C 182.429688 213.820312 183.578125 210.859375 187.398438 205.320312 C 184.660156 202.011719 182.359375 198.550781 179.480469 196.179688 C 175.660156 202.148438 174.730469 202.730469 173.21875 203.378906 C 169.328125 204.238281 169.46875 204.460938 166.300781 204.738281 C 165.511719 204.738281 161.550781 202.371094 160.898438 203.949219 C 160.398438 204.890625 162.988281 206.039062 163.640625 206.46875 C 165.011719 207.480469 167.238281 207.699219 169.539062 207.261719 C 169.898438 207.839844 167.101562 211.371094 166.878906 211.660156 C 163.929688 214.101562 166.160156 212.019531 164.140625 214.25 C 160.980469 217.699219 166.019531 211.941406 162.628906 216.121094 C 161.910156 216.910156 162.058594 218.058594 162.269531 219.070312 C 162.269531 219.070312 163.058594 219.289062 164.578125 218.570312 C 164.578125 218.570312 167.171875 216.480469 167.019531 216.480469 C 163.640625 220.300781 168.679688 214.390625 165.941406 218.710938 C 165.371094 219.578125 165.730469 220.511719 165.941406 221.519531 L 167.53125 221.089844 C 167.671875 221.089844 170.410156 218.710938 170.480469 218.710938 C 167.171875 222.53125 172.058594 216.621094 169.039062 220.730469 C 168.320312 221.738281 168.539062 221.878906 168.96875 223.03125 C 168.96875 223.03125 170.980469 222.53125 171.128906 222.601562 L 172.570312 221.738281 "/>
<path fill="none" stroke-width="2.2" stroke-linecap="butt" stroke-linejoin="miter" stroke="rgb(13.729858%, 12.159729%, 12.548828%)" stroke-opacity="1" stroke-miterlimit="11.4737" d="M 1725.703125 2382.617188 C 1704.101562 2351.015625 1737.1875 2401.40625 1722.8125 2366.09375 C 1716.992188 2354.609375 1723.515625 2348.085938 1726.40625 2347.382812 C 1729.296875 2344.492188 1755.195312 2371.09375 1752.304688 2366.796875 C 1753.789062 2368.984375 1784.6875 2405 1786.210938 2407.109375 C 1824.296875 2461.796875 1835.78125 2491.40625 1873.984375 2546.796875 C 1846.601562 2579.882812 1823.59375 2614.492188 1794.804688 2638.203125 C 1756.601562 2578.515625 1747.304688 2572.695312 1732.1875 2566.210938 C 1693.28125 2557.617188 1694.6875 2555.390625 1663.007812 2552.617188 C 1655.117188 2552.617188 1615.507812 2576.289062 1608.984375 2560.507812 C 1603.984375 2551.09375 1629.882812 2539.609375 1636.40625 2535.3125 C 1650.117188 2525.195312 1672.382812 2523.007812 1695.390625 2527.382812 C 1698.984375 2521.601562 1671.015625 2486.289062 1668.789062 2483.398438 C 1639.296875 2458.984375 1661.601562 2479.804688 1641.40625 2457.5 C 1609.804688 2423.007812 1660.195312 2480.585938 1626.289062 2438.789062 C 1619.101562 2430.898438 1620.585938 2419.414062 1622.695312 2409.296875 C 1622.695312 2409.296875 1630.585938 2407.109375 1645.78125 2414.296875 C 1645.78125 2414.296875 1671.71875 2435.195312 1670.195312 2435.195312 C 1636.40625 2396.992188 1686.796875 2456.09375 1659.414062 2412.890625 C 1653.710938 2404.21875 1657.304688 2394.882812 1659.414062 2384.804688 L 1675.3125 2389.101562 C 1676.71875 2389.101562 1704.101562 2412.890625 1704.804688 2412.890625 C 1671.71875 2374.6875 1720.585938 2433.789062 1690.390625 2392.695312 C 1683.203125 2382.617188 1685.390625 2381.210938 1689.6875 2369.6875 C 1689.6875 2369.6875 1709.804688 2374.6875 1711.289062 2373.984375 Z M 1725.703125 2382.617188 " transform="matrix(0.1, 0, 0, -0.1, 0, 460)"/>
<path fill="none" stroke-width="2.2" stroke-linecap="butt" stroke-linejoin="miter" stroke="rgb(13.729858%, 12.159729%, 12.548828%)" stroke-opacity="1" stroke-miterlimit="11.4737" d="M 1827.890625 3305.703125 C 1827.890625 3301.40625 1826.484375 3296.992188 1826.484375 3292.695312 C 1823.59375 3289.804688 1820 3286.210938 1816.40625 3284.804688 C 1814.21875 3279.804688 1808.515625 3277.617188 1804.21875 3273.984375 C 1800.585938 3272.617188 1796.210938 3266.09375 1791.914062 3263.90625 C 1791.914062 3262.5 1786.914062 3253.789062 1786.914062 3253.789062 " transform="matrix(0.1, 0, 0, -0.1, 0, 460)"/>
<path fill-rule="evenodd" fill="rgb(13.729858%, 12.159729%, 12.548828%)" fill-opacity="1" d="M 64.929688 168.820312 C 63.558594 183.648438 77.238281 198.839844 91.28125 201.648438 L 82.351562 207.550781 C 71.839844 202.011719 57.582031 187.96875 56.71875 174.648438 L 64.929688 168.820312 "/>
<path fill="none" stroke-width="2.2" stroke-linecap="butt" stroke-linejoin="miter" stroke="rgb(13.729858%, 12.159729%, 12.548828%)" stroke-opacity="1" stroke-miterlimit="11.4737" d="M 649.296875 2911.796875 C 635.585938 2763.515625 772.382812 2611.601562 912.8125 2583.515625 L 823.515625 2524.492188 C 718.398438 2579.882812 575.820312 2720.3125 567.1875 2853.515625 Z M 649.296875 2911.796875 " transform="matrix(0.1, 0, 0, -0.1, 0, 460)"/>
<path fill-rule="evenodd" fill="rgb(13.729858%, 12.159729%, 12.548828%)" fill-opacity="1" stroke-width="2.2" stroke-linecap="butt" stroke-linejoin="miter" stroke="rgb(13.729858%, 12.159729%, 12.548828%)" stroke-opacity="1" stroke-miterlimit="11.4737" d="M 928.59375 2596.484375 L 804.804688 2509.414062 L 1001.40625 2474.101562 Z M 928.59375 2596.484375 " transform="matrix(0.1, 0, 0, -0.1, 0, 460)"/>
<path fill-rule="evenodd" fill="rgb(13.729858%, 12.159729%, 12.548828%)" fill-opacity="1" d="M 231.101562 170.398438 C 234.058594 185.019531 222.101562 201.648438 208.570312 206.039062 L 218.140625 210.859375 C 227.859375 204.101562 240.390625 188.621094 239.960938 175.300781 L 231.101562 170.398438 "/>
<path fill="none" stroke-width="2.2" stroke-linecap="butt" stroke-linejoin="miter" stroke="rgb(13.729858%, 12.159729%, 12.548828%)" stroke-opacity="1" stroke-miterlimit="11.4737" d="M 2311.015625 2896.015625 C 2340.585938 2749.804688 2221.015625 2583.515625 2085.703125 2539.609375 L 2181.40625 2491.40625 C 2278.59375 2558.984375 2403.90625 2713.789062 2399.609375 2846.992188 Z M 2311.015625 2896.015625 " transform="matrix(0.1, 0, 0, -0.1, 0, 460)"/>
<path fill-rule="evenodd" fill="rgb(13.729858%, 12.159729%, 12.548828%)" fill-opacity="1" stroke-width="2.2" stroke-linecap="butt" stroke-linejoin="miter" stroke="rgb(13.729858%, 12.159729%, 12.548828%)" stroke-opacity="1" stroke-miterlimit="11.4737" d="M 2069.101562 2550.390625 L 2201.601562 2478.398438 L 2010.117188 2422.1875 Z M 2069.101562 2550.390625 " transform="matrix(0.1, 0, 0, -0.1, 0, 460)"/>
<path fill="none" stroke-width="2.2" stroke-linecap="butt" stroke-linejoin="miter" stroke="rgb(13.729858%, 12.159729%, 12.548828%)" stroke-opacity="1" stroke-miterlimit="11.4737" d="M 1034.492188 3554.101562 C 1034.492188 3548.984375 1058.203125 3524.609375 1058.203125 3518.085938 C 1076.210938 3500.78125 1088.515625 3476.992188 1094.21875 3458.984375 L 1094.21875 3440.3125 C 1100 3428.789062 1100 3416.601562 1100 3404.296875 " transform="matrix(0.1, 0, 0, -0.1, 0, 460)"/>
<path fill="none" stroke-width="2.2" stroke-linecap="butt" stroke-linejoin="miter" stroke="rgb(13.729858%, 12.159729%, 12.548828%)" stroke-opacity="1" stroke-miterlimit="11.4737" d="M 992.695312 3566.289062 C 1010 3505.78125 1063.984375 3446.796875 1063.984375 3380.585938 " transform="matrix(0.1, 0, 0, -0.1, 0, 460)"/>
<path fill="none" stroke-width="2.2" stroke-linecap="butt" stroke-linejoin="miter" stroke="rgb(13.729858%, 12.159729%, 12.548828%)" stroke-opacity="1" stroke-miterlimit="11.4737" d="M 1915 3566.289062 C 1879.804688 3488.59375 1849.492188 3404.296875 1849.492188 3314.296875 " transform="matrix(0.1, 0, 0, -0.1, 0, 460)"/>
<path fill-rule="evenodd" fill="rgb(22.322083%, 20.909119%, 21.260071%)" fill-opacity="1" d="M 232.039062 169.539062 L 240.679688 174.070312 L 241.109375 171.621094 L 232.398438 166.941406 L 232.039062 169.539062 "/>
<path fill="none" stroke-width="2.2" stroke-linecap="butt" stroke-linejoin="miter" stroke="rgb(13.729858%, 12.159729%, 12.548828%)" stroke-opacity="1" stroke-miterlimit="11.4737" d="M 2320.390625 2904.609375 L 2406.796875 2859.296875 L 2411.09375 2883.789062 L 2323.984375 2930.585938 Z M 2320.390625 2904.609375 " transform="matrix(0.1, 0, 0, -0.1, 0, 460)"/>
<path fill-rule="evenodd" fill="rgb(22.322083%, 20.909119%, 21.260071%)" fill-opacity="1" d="M 63.628906 168.460938 L 54.988281 173.058594 L 54.558594 170.621094 L 63.269531 165.941406 L 63.628906 168.460938 "/>
<path fill="none" stroke-width="2.2" stroke-linecap="butt" stroke-linejoin="miter" stroke="rgb(13.729858%, 12.159729%, 12.548828%)" stroke-opacity="1" stroke-miterlimit="11.4737" d="M 636.289062 2915.390625 L 549.882812 2869.414062 L 545.585938 2893.789062 L 632.695312 2940.585938 Z M 636.289062 2915.390625 " transform="matrix(0.1, 0, 0, -0.1, 0, 460)"/>
<path fill-rule="evenodd" fill="rgb(22.322083%, 20.909119%, 21.260071%)" fill-opacity="1" d="M 233.699219 160.679688 L 242.410156 165.21875 L 242.839844 162.769531 L 234.058594 158.089844 L 233.699219 160.679688 "/>
<path fill="none" stroke-width="2.2" stroke-linecap="butt" stroke-linejoin="miter" stroke="rgb(13.729858%, 12.159729%, 12.548828%)" stroke-opacity="1" stroke-miterlimit="11.4737" d="M 2336.992188 2993.203125 L 2424.101562 2947.8125 L 2428.398438 2972.304688 L 2340.585938 3019.101562 Z M 2336.992188 2993.203125 " transform="matrix(0.1, 0, 0, -0.1, 0, 460)"/>
<path fill-rule="evenodd" fill="rgb(22.322083%, 20.909119%, 21.260071%)" fill-opacity="1" d="M 61.898438 159.671875 L 53.261719 164.210938 L 52.832031 161.691406 L 61.621094 157.078125 L 61.898438 159.671875 "/>
<path fill="none" stroke-width="2.2" stroke-linecap="butt" stroke-linejoin="miter" stroke="rgb(13.729858%, 12.159729%, 12.548828%)" stroke-opacity="1" stroke-miterlimit="11.4737" d="M 618.984375 3003.28125 L 532.617188 2957.890625 L 528.320312 2983.085938 L 616.210938 3029.21875 Z M 618.984375 3003.28125 " transform="matrix(0.1, 0, 0, -0.1, 0, 460)"/>
<path fill-rule="evenodd" fill="rgb(22.322083%, 20.909119%, 21.260071%)" fill-opacity="1" d="M 232.980469 165.21875 L 241.691406 169.679688 L 242.050781 167.230469 L 233.261719 162.550781 L 232.980469 165.21875 "/>
<path fill="none" stroke-width="2.2" stroke-linecap="butt" stroke-linejoin="miter" stroke="rgb(13.729858%, 12.159729%, 12.548828%)" stroke-opacity="1" stroke-miterlimit="11.4737" d="M 2329.804688 2947.8125 L 2416.914062 2903.203125 L 2420.507812 2927.695312 L 2332.617188 2974.492188 Z M 2329.804688 2947.8125 " transform="matrix(0.1, 0, 0, -0.1, 0, 460)"/>
<path fill-rule="evenodd" fill="rgb(22.322083%, 20.909119%, 21.260071%)" fill-opacity="1" d="M 62.699219 164.140625 L 53.980469 168.738281 L 53.621094 166.21875 L 62.339844 161.621094 L 62.699219 164.140625 "/>
<path fill="none" stroke-width="2.2" stroke-linecap="butt" stroke-linejoin="miter" stroke="rgb(13.729858%, 12.159729%, 12.548828%)" stroke-opacity="1" stroke-miterlimit="11.4737" d="M 626.992188 2958.59375 L 539.804688 2912.617188 L 536.210938 2937.8125 L 623.398438 2983.789062 Z M 626.992188 2958.59375 " transform="matrix(0.1, 0, 0, -0.1, 0, 460)"/>
<path fill-rule="evenodd" fill="rgb(22.322083%, 20.909119%, 21.260071%)" fill-opacity="1" d="M 235.140625 155.859375 L 243.78125 160.460938 L 244.140625 158.019531 L 235.351562 153.339844 L 235.140625 155.859375 "/>
<path fill="none" stroke-width="2.2" stroke-linecap="butt" stroke-linejoin="miter" stroke="rgb(13.729858%, 12.159729%, 12.548828%)" stroke-opacity="1" stroke-miterlimit="11.4737" d="M 2351.40625 3041.40625 L 2437.8125 2995.390625 L 2441.40625 3019.804688 L 2353.515625 3066.601562 Z M 2351.40625 3041.40625 " transform="matrix(0.1, 0, 0, -0.1, 0, 460)"/>
<path fill-rule="evenodd" fill="rgb(22.322083%, 20.909119%, 21.260071%)" fill-opacity="1" d="M 60.609375 154.921875 L 51.898438 159.460938 L 51.539062 156.941406 L 60.320312 152.261719 L 60.609375 154.921875 "/>
<path fill="none" stroke-width="2.2" stroke-linecap="butt" stroke-linejoin="miter" stroke="rgb(13.729858%, 12.159729%, 12.548828%)" stroke-opacity="1" stroke-miterlimit="11.4737" d="M 606.09375 3050.78125 L 518.984375 3005.390625 L 515.390625 3030.585938 L 603.203125 3077.382812 Z M 606.09375 3050.78125 " transform="matrix(0.1, 0, 0, -0.1, 0, 460)"/>
<path fill="none" stroke-width="2.2" stroke-linecap="butt" stroke-linejoin="miter" stroke="rgb(13.729858%, 12.159729%, 12.548828%)" stroke-opacity="1" stroke-miterlimit="11.4737" d="M 1949.609375 3511.601562 C 1949.609375 3511.601562 1912.1875 3409.414062 1912.1875 3405 C 1912.1875 3401.40625 1871.09375 3312.890625 1871.09375 3312.890625 " transform="matrix(0.1, 0, 0, -0.1, 0, 460)"/>
<path fill="none" stroke-width="2.2" stroke-linecap="butt" stroke-linejoin="miter" stroke="rgb(13.729858%, 12.159729%, 12.548828%)" stroke-opacity="1" stroke-miterlimit="11.4737" d="M 1969.804688 3257.382812 L 2028.789062 3319.414062 L 2086.40625 3319.414062 " transform="matrix(0.1, 0, 0, -0.1, 0, 460)"/>
<path fill="none" stroke-width="2.2" stroke-linecap="butt" stroke-linejoin="miter" stroke="rgb(13.729858%, 12.159729%, 12.548828%)" stroke-opacity="1" stroke-miterlimit="11.4737" d="M 1969.804688 3209.21875 L 2038.203125 3257.382812 L 2086.40625 3257.382812 " transform="matrix(0.1, 0, 0, -0.1, 0, 460)"/>
<path fill="none" stroke-width="2.2" stroke-linecap="butt" stroke-linejoin="miter" stroke="rgb(13.729858%, 12.159729%, 12.548828%)" stroke-opacity="1" stroke-miterlimit="11.4737" d="M 985.507812 3291.992188 C 985.507812 3291.992188 927.890625 3305.703125 924.296875 3305.703125 C 921.40625 3305.703125 870.3125 3376.992188 870.3125 3376.992188 " transform="matrix(0.1, 0, 0, -0.1, 0, 460)"/>
<path fill="none" stroke-width="2.2" stroke-linecap="butt" stroke-linejoin="miter" stroke="rgb(13.729858%, 12.159729%, 12.548828%)" stroke-opacity="1" stroke-miterlimit="11.4737" d="M 958.203125 3248.085938 C 958.203125 3248.085938 978.984375 3261.796875 927.1875 3248.085938 C 876.09375 3233.710938 849.414062 3237.304688 849.414062 3237.304688 " transform="matrix(0.1, 0, 0, -0.1, 0, 460)"/>
<path fill="none" stroke-width="2.2" stroke-linecap="butt" stroke-linejoin="miter" stroke="rgb(13.729858%, 12.159729%, 12.548828%)" stroke-opacity="1" stroke-miterlimit="11.4737" d="M 2041.796875 2986.71875 L 1976.992188 2816.09375 " transform="matrix(0.1, 0, 0, -0.1, 0, 460)"/>
<path fill="none" stroke-width="2.2" stroke-linecap="butt" stroke-linejoin="miter" stroke="rgb(13.729858%, 12.159729%, 12.548828%)" stroke-opacity="1" stroke-miterlimit="11.4737" d="M 876.09375 3090.390625 L 996.289062 2781.484375 " transform="matrix(0.1, 0, 0, -0.1, 0, 460)"/>
<path fill="none" stroke-width="2.2" stroke-linecap="butt" stroke-linejoin="miter" stroke="rgb(13.729858%, 12.159729%, 12.548828%)" stroke-opacity="1" stroke-miterlimit="11.4737" d="M 17.8125 4596.601562 L 2979.21875 4596.601562 L 2979.21875 10.195312 L 17.8125 10.195312 Z M 17.8125 4596.601562 " transform="matrix(0.1, 0, 0, -0.1, 0, 460)"/>
</svg>
