<?xml version="1.0" encoding="UTF-8"?>
<svg xmlns="http://www.w3.org/2000/svg" xmlns:xlink="http://www.w3.org/1999/xlink" width="3.1825098in" height="1.3066667in" viewBox="0 0 228 90">
<defs>
<g>
<g id="glyph-0-0">
<path d="M 0.21875 -0.125 L 3.359375 -1.828125 L 3.109375 -2.28125 L 0.640625 -0.9375 L 1.421875 -3.328125 C 1.734375 -4.375 1.75 -4.84375 1.46875 -5.375 C 0.984375 -6.25 -0.015625 -6.515625 -0.921875 -6.03125 C -1.609375 -5.65625 -1.953125 -5 -1.84375 -4.28125 C -1.8125 -4 -1.75 -3.828125 -1.5625 -3.484375 L -1.078125 -3.75 C -1.234375 -4.0625 -1.3125 -4.296875 -1.328125 -4.515625 C -1.328125 -4.953125 -1.09375 -5.34375 -0.671875 -5.578125 C -0.0625 -5.90625 0.625 -5.734375 0.953125 -5.125 C 1.109375 -4.84375 1.140625 -4.515625 1.046875 -4.125 C 1.015625 -3.859375 0.984375 -3.796875 0.796875 -3.1875 L -0.03125 -0.578125 Z M 0.21875 -0.125 "/>
</g>
<g id="glyph-1-0">
<path d="M 0.40625 0 L 4.890625 0 L 15.6875 -17.5 L 26.4375 0 L 30.90625 0 L 17.953125 -20.9375 L 30.140625 -40.921875 L 25.71875 -40.921875 L 15.6875 -24.53125 L 5.609375 -40.921875 L 1.125 -40.921875 L 13.328125 -20.9375 Z M 0.40625 0 "/>
</g>
</g>
</defs>
<g fill="rgb(13.729858%, 12.159729%, 12.548828%)" fill-opacity="1">
<use xlink:href="#glyph-0-0" x="142.72" y="36.984"/>
</g>
<path fill-rule="evenodd" fill="rgb(100%, 100%, 100%)" fill-opacity="1" d="M 16 17.332031 L 211.261719 17.332031 L 211.261719 65.5 L 16 65.5 L 16 17.332031 "/>
<path fill="none" stroke-width="7.2" stroke-linecap="butt" stroke-linejoin="miter" stroke="rgb(13.729858%, 12.159729%, 12.548828%)" stroke-opacity="1" stroke-miterlimit="11.4737" d="M 160 726.679688 L 2112.617188 726.679688 L 2112.617188 245 L 160 245 Z M 160 726.679688 " transform="matrix(0.1, 0, 0, -0.1, 0, 90)"/>
<g fill="rgb(13.729858%, 12.159729%, 12.548828%)" fill-opacity="1">
<use xlink:href="#glyph-1-0" x="31.1918" y="60.9602"/>
</g>
<path fill="none" stroke-width="2.2" stroke-linecap="butt" stroke-linejoin="miter" stroke="rgb(13.729858%, 12.159729%, 12.548828%)" stroke-opacity="1" stroke-miterlimit="11.4737" d="M 13.789062 898.085938 L 2270.3125 898.085938 L 2270.3125 13.203125 L 13.789062 13.203125 Z M 13.789062 898.085938 " transform="matrix(0.1, 0, 0, -0.1, 0, 90)"/>
</svg>
